# xmcd CD database file
#
# Track frame offsets:
#	150
#	23849
#	40230
#	60213
#	86785
#	113173
#	132753
#	154698
#	189647
#	211511
#	232041
#	251880
#	272797
#
# Disc length: 3996 seconds
#
# Revision: 0
# Processed by: cddbd v1.4PL0 Copyright (c) Steve Scherf et al.
# Submitted via: Feurio! 1.63 - http://www.feurio.com
#
DISCID=ac0f9a0d
DTITLE=Blues Company - Two Nights Only
DYEAR=1900
DGENRE=Blues
TTITLE0=Blues Is My Middlename
TTITLE1=I've Got The Blues
TTITLE2=Invitation To The Blues
TTITLE3=Rollin' And Tumblin'
TTITLE4=747
TTITLE5=Good Man Bad
TTITLE6=Bo Diddley's Groove
TTITLE7=I Just Can't Keep From Cryin'
TTITLE8=Don't Do That - She Might Get Mad
TTITLE9=Dinner At Woolfies
TTITLE10=Walkin Blues
TTITLE11=The Blues Ist Allright
TTITLE12=(They Called Him) Muddy Waters
EXTD=
EXTT0=
EXTT1=
EXTT2=
EXTT3=
EXTT4=
EXTT5=
EXTT6=
EXTT7=
EXTT8=
EXTT9=
EXTT10=
EXTT11=
EXTT12=
PLAYORDER=
